<svg xmlns="http://www.w3.org/2000/svg" xmlns:xlink="http://www.w3.org/1999/xlink" width="1440" height="748" viewBox="0 0 1440 748">
    <defs>
        <linearGradient id="a" x1="9.924%" x2="60.575%" y1="54.886%" y2="58.756%">
            <stop offset="0%" stop-color="#F5FCFA"/>
            <stop offset="100%" stop-color="#DFF6EF"/>
        </linearGradient>
        <linearGradient id="c" x1="57.581%" x2="57.581%" y1="42.106%" y2="62.568%">
            <stop offset="0%" stop-color="#FFF"/>
            <stop offset="100%" stop-color="#EBF8F6"/>
        </linearGradient>
        <path id="b" d="M0 0h1471.994l-1.688 728.55c-236.14 21.925-476.17 5.698-720.092-48.681C506.292 625.489 256.22 607.492 0 625.877V0z"/>
        <linearGradient id="e" x1="0%" x2="57.106%" y1="46.639%" y2="50.567%">
            <stop offset="0%" stop-color="#EDF8F5"/>
            <stop offset="100%" stop-color="#A2DECF"/>
        </linearGradient>
        <linearGradient id="f" x1="-1.973%" x2="57.666%" y1="46.281%" y2="52.097%">
            <stop offset="0%" stop-color="#EDF8F5"/>
            <stop offset="100%" stop-color="#A4E2D3"/>
        </linearGradient>
        <radialGradient id="g" cy="-3.191%" r="142.254%" fx="50%" fy="-3.191%" gradientTransform="matrix(0 1 -.70679 0 .477 -.532)">
            <stop offset="0%" stop-color="#F1F1F1"/>
            <stop offset="54.139%" stop-color="#FBFBFB"/>
            <stop offset="100%" stop-color="#EBEBEB"/>
        </radialGradient>
        <radialGradient id="h" cx="97.781%" cy="0%" r="172.173%" fx="97.781%" fy="0%" gradientTransform="scale(-.69767 -1) rotate(-35.508 -.212 3.716)">
            <stop offset="0%" stop-color="#F7F7F7"/>
            <stop offset="54.139%" stop-color="#F7F7F7"/>
            <stop offset="100%" stop-color="#E6E6E6"/>
        </radialGradient>
        <linearGradient id="i" x1="50%" x2="50%" y1="0%" y2="100%">
            <stop offset="0%" stop-color="#FEDB9D"/>
            <stop offset="100%" stop-color="#FCB564"/>
        </linearGradient>
        <linearGradient id="j" x1="45.389%" x2="0%" y1="10.193%" y2="100%">
            <stop offset="0%" stop-color="#FFCDC5" stop-opacity=".701"/>
            <stop offset="100%" stop-color="#FF8098"/>
        </linearGradient>
    </defs>
    <g fill="none" fill-rule="evenodd">
        <path fill="url(#a)" fill-rule="nonzero" d="M0 132h1470.306l1.688 594.769c-256.932 35.684-507.498 26.386-751.7-27.894C476.09 644.595 235.994 640.43 0 686.38V132z" transform="translate(-9.163)"/>
        <g transform="translate(-9.163)">
            <mask id="d" fill="#fff">
                <use xlink:href="#b"/>
            </mask>
            <use fill="url(#c)" fill-rule="nonzero" xlink:href="#b"/>
            <g fill-rule="nonzero" mask="url(#d)">
                <path fill="url(#e)" d="M730 107.557c189.285-67.008 381.518-72.29 576.699-15.847C1501.879 148.155 1705.647 237.918 1918 361H760.757L730 107.557z" transform="translate(-165.837 436)"/>
                <path fill="url(#f)" d="M162 45.256c173.26-33.99 360.075-29.047 560.443 14.826C922.811 103.956 1131.997 199.595 1350 347H162V45.256z" transform="translate(-165.837 436)"/>
            </g>
            <g mask="url(#d)">
                <g transform="translate(-59 433)">
                    <ellipse cx="98.212" cy="98.704" fill="#A4E2D3" rx="98.212" ry="98.248"/>
                    <g fill="#FFF" stroke="#FFF" stroke-width="2.413" opacity=".5">
                        <path d="M86.36 32.768l1.244-.183 33.585 227.52-1.245.184z"/>
                        <path d="M100.191 123.336l42.02-51.375.973.797-42.02 51.375zM95.482 91.165L22.873 69.957l.353-1.208 72.609 21.22z"/>
                    </g>
                </g>
            </g>
            <g mask="url(#d)">
                <g transform="translate(640.552 408)">
                    <path fill="#3D4656" d="M179.002 155.22c-4.934-.02-8.928-3.342-8.951-7.447V31.338c0-4.122 4.016-7.463 8.97-7.463 4.955 0 8.971 3.341 8.971 7.463v116.42c-.016 4.123-4.035 7.458-8.99 7.462z"/>
                    <path fill="#1D222A" d="M145.805 114.174l.527-.072 13.957 102.834-.527.072zM79.428 114.18l.527-.072 13.957 102.834-.527.072z"/>
                    <path fill="#1D222A" d="M90.529 193.889h72.78v1h-72.78z"/>
                    <path fill="#1A2249" d="M86.652 165.316h72.78v1h-72.78z"/>
                    <rect width="185.854" height="131.36" x=".855" y="23.875" fill="url(#g)" rx="8.98"/>
                    <path fill="url(#h)" d="M8.621 25.234h169.994c2.181 0 4.272.85 5.814 2.363a7.988 7.988 0 0 1 2.409 5.703V147.24c0 2.14-.867 4.19-2.409 5.703a8.304 8.304 0 0 1-5.814 2.362H8.621c-4.541 0-8.222-3.61-8.222-8.065V33.32A7.987 7.987 0 0 1 2.8 27.603a8.304 8.304 0 0 1 5.821-2.369z"/>
                    <g transform="matrix(-1 0 0 1 238.499 196.82)">
                        <rect width="11.502" height="31.632" x="11.502" fill="#333B49" rx="5.751"/>
                        <rect width="11.502" height="31.632" x="14.377" fill="#4E596C" rx="5.751"/>
                        <rect width="34.506" height="28.757" x="1.438" y="5.751" fill="#4E596C" rx="7.804"/>
                        <rect width="11.502" height="28.757" y="5.751" fill="#FF9398" rx="5.751"/>
                        <path fill="#FFB0B2" d="M2.301 30.69V9.555c0-1.993 1.503-3.65 3.45-3.805H3.75C1.685 5.748.008 7.45 0 9.556v21.133c0 2.11 1.676 3.82 3.744 3.82h2.001c-1.95-.16-3.452-1.824-3.444-3.82zM29.527 30.195H17.915c-1.954 0-3.538-1.647-3.538-3.678V14.378h18.69v12.139c0 .976-.372 1.912-1.036 2.602a3.47 3.47 0 0 1-2.504 1.076z"/>
                    </g>
                    <path fill="#10AEAE" d="M46.23 43.129h32.416v32.504H46.23z" opacity=".366"/>
                    <path fill="#FF946D" d="M110.948 75.633H78.531V43.13h32.417z"/>
                    <path fill="#FF6C36" d="M78.531 53.911l31.172 21.23-31.172.051z"/>
                    <path fill="#FF6C36" fill-rule="nonzero" d="M71.804 108.051H45.46V81.637h26.343v26.414zm-25.916-.427h25.49v-25.56h-25.49v25.56z"/>
                    <path fill="#FFB0B2" d="M110.832 107.823h32.416v32.504h-32.416z"/>
                    <path fill="#018989" fill-opacity=".7" d="M46.23 43.129h1.492v32.504H46.23z"/>
                    <path fill="#10AEAE" d="M78.531 75.476h32.416v32.504H78.531z" opacity=".366"/>
                    <path fill="#018989" fill-opacity=".7" d="M78.531 75.476h1.492v32.504h-1.492z"/>
                    <path fill="#F4AA80" d="M181.614 161.693l-2.463 61.167-8.057-1.231-4.394-62.205z"/>
                    <path fill="#3D4656" d="M170.031 218.727l9.484.782-1.065 11.279h-17.903a4.221 4.221 0 0 1 2.984-4.039l6.505-1.992-.005-6.03z"/>
                    <path fill="#FFCFB4" d="M187.168 161.734l6.73 60.842h-8.15l-13.665-60.842z"/>
                    <path fill="#F4AA36" d="M189.453 44.67s7.391.965 16.13 33.696c1.875 7.023-21.74 41.031-21.74 41.031l-.993-7.975 13.32-32.128-9.556-16.31 2.839-18.314z"/>
                    <path fill="#FFF" d="M72.873 27.726h32.416V60.23H72.873z"/>
                    <path fill="#39A9A9" d="M105.174 27.726h1.492V60.23h-1.492z"/>
                    <path fill="#FDC4A5" d="M175.365 176.343l13.61 1.727-1.807-16.336h-15.085z"/>
                    <path fill="#FFCFB4" d="M108.5 62.786s-3.38-1.389-6.645-1.444c-3.265-.056-6.76-2.279-7.702-4.168-.7-1.402-.776-3.496.332-4.33 1.109-.833 9.199 2.445 10.47 2.001 1.27-.445 1.495-.855 1.495-.855v-2.389s2.328 1.282 2.715 2.89c.388 1.606 1.774 3.607 1.774 3.607l-2.438 4.688z"/>
                    <path fill="#00A1A1" d="M161.819 95.5l-9.732 70.317s22.357 5.851 38.252 2.163l15.9-3.689-11.863-68.09-32.557-.7z"/>
                    <path fill="#018989" d="M191.558 167.266l14.825-3.42-11.863-68.128-10.132-.218z"/>
                    <path fill="#F9C200" d="M173.086 43.13l-14.846 4.855 2.476 52.677c.064 1.407 11.884 4.424 18.018 4.398 5.917-.021 15.797-1.872 16.667-2.632a2.499 2.499 0 0 0 .882-1.821l-2.34-49.413a6.968 6.968 0 0 0-6.027-6.577l-4.753-.637-10.077-.85z"/>
                    <path fill="#1A2249" fill-rule="nonzero" d="M162.662 26.917c-2.012 0-3.653-1.962-3.653-4.369v-.213H166.319v.213c-.004 2.411-1.64 4.369-3.657 4.369zm-3.222-4.172c.09 2.09 1.5 3.744 3.222 3.744s3.141-1.662 3.227-3.744h-6.45z"/>
                    <path fill="#FFCFB4" d="M184.487 28.496l-1.833 14.96s-2.43 1.85-6.214 1.123c-2.775-.53-3.837-1.991-3.837-1.991l-.52-8.155 12.404-5.937z"/>
                    <path fill="#E68D5C" d="M184.347 33.642c-.139.25-.296.488-.47.714-2.37 3.043-6.93 7.385-11.274 8.232l-.354-5.557 12.426-5.932-.328 2.543z"/>
                    <path fill="#FFCFB4" d="M163.9 32.5c4.101 8.65 14.43 1.688 18.786-2.671 4.356-4.36 3.606-19.178 2.4-22.332-1.207-3.155-11.27-5.72-16.582-3.697-5.31 2.021-8.695 20.05-4.603 28.7z"/>
                    <path fill="#7A4029" d="M168.43 39.327a25.43 25.43 0 0 0 13.248 1.219 24.964 24.964 0 0 0 7.468-2.638c2.302-10.685 2.984-22.562-1.799-31.2-3.329-5.984-12.105-8.023-17.779-5.881-8.252 3.115-8.132 14.104-8.252 15.074a16.64 16.64 0 0 1 5.793-.042l1.321 23.468z"/>
                    <path fill="#FFCFB4" d="M170.713 26.058c0 1.629-2.131 3.07-3.474 3.07-1.342 0-1.308-1.441-1.308-3.07 0-1.628 1.07-2.953 2.391-2.953s2.391 1.33 2.391 2.953z"/>
                    <path fill="#FFF" d="M165.162 30.055c0 1.287 1.04 2.33 2.323 2.33a2.326 2.326 0 0 0 2.323-2.33c0-1.286-1.04-2.33-2.323-2.33a2.326 2.326 0 0 0-2.323 2.33z"/>
                    <path fill="#1A2249" d="M159.009 22.335h20.4v1h-20.4z"/>
                    <path fill="#536077" d="M193.656 218.727l1.369 12.061h-19.096a4.21 4.21 0 0 1 2.668-3.924l6.564-2.564-.78-4.415 9.275-1.158z"/>
                    <path fill="#0BB" d="M14.168 32.084c0 .828-.498 1.575-1.262 1.892a2.038 2.038 0 0 1-2.225-.446 2.051 2.051 0 0 1-.44-2.233 2.042 2.042 0 0 1 3.927.787zM22.627 32.084c0 1.13-.914 2.047-2.041 2.047a2.045 2.045 0 0 1-2.042-2.047 2.045 2.045 0 0 1 3.487-1.45c.383.385.598.906.596 1.45zM31.087 32.084c0 1.13-.914 2.047-2.042 2.047a2.045 2.045 0 0 1-2.041-2.047 2.039 2.039 0 1 1 3.485-1.448c.383.384.598.905.598 1.448z"/>
                    <path fill="#F4B036" d="M164.431 60.843l-5.422 3.022 1.705 36.29c.043.928 5.196 2.565 10.46 3.548l-6.743-42.86z"/>
                    <path fill="url(#i)" d="M154.716 50.487L140.262 73.06l-28.81-15.387s-2.52 3.103-2.946 5.24l-.256 1.282s24.94 21.123 30.733 21.37c10.09.428 25.67-22.512 25.67-22.512l-1.574-14.27a5.954 5.954 0 0 0-8.363 1.705z"/>
                    <path fill="#FF9398" d="M132.887 140.297l-22.055-.06v-29.098z"/>
                </g>
                <path fill="#FBAD83" d="M580.574 553.83s-1.278 5.505-.92 9.518c.358 4.013 20.673 10.283 20.673 10.283v-11.805l-19.753-7.996z"/>
                <path fill="#018989" d="M650.313 579.26h-32.685l2.733 18.285z"/>
                <path fill="#3D4656" d="M638.097 577.384h20.345v1.876h-20.345zM658.557 577.384h-.115v-28.068h.115c.968 0 1.754.786 1.756 1.757v24.554a1.759 1.759 0 0 1-1.756 1.757z"/>
                <path fill="#A7D8D8" d="M622.198 549.316h36.24v28.068h-36.24z"/>
                <path fill="#3D4656" d="M601.857 577.384h36.24v1.876h-36.24z"/>
                <path fill="#FFF" d="M623.157 550.145h34.326v26.012h-34.326z"/>
                <path fill="#3D4656" d="M635.37 606.807s5.114 2.85 13.345 2.85c8.231 0 13.926-6.24 14.778-8.975.853-2.736-1.658-4.249-6.82-3.928-5.162.32-15.912 1.808-19.322 3.928-3.41 2.12-1.982 6.125-1.982 6.125zM607.94 606.807s-5.115 2.85-13.346 2.85-13.922-6.24-14.774-8.975c-.853-2.736 1.654-4.249 6.82-3.928 5.166.32 15.912 1.808 19.322 3.928 3.41 2.12 1.978 6.125 1.978 6.125z"/>
                <path fill="#00A1A1" d="M584.176 593.66s-2.664 14.903 9.344 19.126c18.755 6.59 42.054-1.026 57.97-17.75 15.916-16.725.852-18.011-3.555-15.874-3.372 1.637-24.254 14.583-24.254 14.583l-39.505-.085z"/>
                <path fill="#FBAD83" d="M630.638 541.294l8.162 19.477s8.176 11.36 10.576 11.578c6.232.573 6.658 3.808 6.658 3.808H645.51l-14.638-10.646-6.82-12.305 6.586-11.912z"/>
                <path fill="#E2E2E2" d="M590.57 528.164s-5.814 4.137-8.227 10.258c-2.412 6.12-2.702 17.237-2.702 17.237s2.131 2.137 6.539 1.568l4.403-.568-.013-28.495z"/>
                <path fill="#F6A97F" d="M596.725 510.743v14.275s2.387 2.035 6.594 1.791c3.892-.227 4.51-1.637 4.51-1.637l1.611-7.407-12.715-7.022z"/>
                <path fill="#FBAD83" d="M616.998 519.795c-3.888 8.202-13.538 3.36-17.669-.778-4.13-4.137-3.546-19.917-2.404-22.909 1.143-2.991 10.695-5.423 15.73-3.492 5.033 1.932 8.243 18.977 4.343 27.18z"/>
                <path fill="#7A4029" d="M593.153 515.055c1.027 2.295 2.451 2.868 3.977 3.42 2.131.765 4.186.987 8.141.312 6.19-1.056 5.047-2.377 4.17-5.416-.879-3.039 4.453 0 4.982-2.628.529-2.629-2.438-7.005-1.253-8.459 1.185-1.453 4.552 0 5.567-1.983 1.014-1.983 2.131-5.44 0-8.394-2.132-2.953-5.435-1.372-7.673-1.902-2.238-.53-1.45-3.3-5.793-3.3s-5.511 5.283-8.546 6.471c-3.035 1.189-6.858 5.411-4.62 8.976 2.237 3.564 2.365 4.992 1.483 6.8-.759 1.551-1.194 4.415-.435 6.103z"/>
                <path fill="#FBAD83" d="M608.63 513.162c0 2.137 2.8 3.996 4.523 3.996 1.722 0 1.705-1.88 1.705-3.996s-1.394-3.825-3.116-3.825c-1.722 0-3.112 1.73-3.112 3.825z"/>
                <path fill="#018989" d="M584.176 593.672s-2.31 12.947 7.102 18.122l32.395-18.036-39.497-.086z"/>
                <path fill="#E68D5C" d="M609.854 513.397c.383.885 1.9 1.167 2.625.855.725-.312-1.376-.428-1.756-1.282-.38-.855.473-2.043-.251-1.731-.725.312-.998 1.269-.618 2.158z"/>
                <path fill="#FBAD83" d="M619.981 569.93s3.884 2.03 4.95 2.137c1.065.107 4.206.782 5.485 1.564 1.279.783 1.812 2.526 1.812 2.526h-14.6l2.353-6.227z"/>
                <path fill="#F0F1F4" d="M607.876 524.813s10.613 2.727 13.798 3.654c7.779 2.257 16.197 22.131 16.197 22.131s.746 2.992-7.246 7.651a11.45 11.45 0 0 1-3.41 1.432l-4.625-8.788 1.078 42.852s-14.53 8.005-32.514 3.94c-8.372-1.893-7.903-3.35-7.903-3.35s-.61-53.742 3.005-60.722a17.742 17.742 0 0 1 10.064-8.736l11.556-.064z"/>
                <path fill="#E2E2E2" d="M623.728 593.745l-1.078-42.852-24.067 47.84c14.42.91 25.145-4.988 25.145-4.988z"/>
            </g>
            <g mask="url(#d)">
                <path fill="#23CDBF" d="M1323.226 592.55c19.667 21.207 52.364 22.04 73.033 1.86 20.669-20.178 21.483-53.728 1.819-74.938-19.665-21.21-52.362-22.048-73.033-1.872-20.661 20.187-21.476 53.733-1.82 74.95z"/>
                <g fill="#FFF" stroke="#FFF" stroke-width="1.448" opacity=".4">
                    <path d="M1355.985 526.828l1.35-.043 6.92 219.046-1.348.043z"/>
                    <path d="M1357.418 564.597l30.74-27.445.896 1.015-30.74 27.445zM1340.33 541.648l.537-1.245 16.724 7.302-.537 1.245z"/>
                </g>
                <path fill="#77D7C9" d="M1338.517 639.835c0 41.53 33.589 75.198 75.022 75.198 41.434 0 75.022-33.667 75.022-75.198 0-41.53-33.588-75.197-75.022-75.197-41.43.007-75.015 33.67-75.022 75.197z"/>
                <g fill="#FFF" stroke="#FFF" stroke-width="1.448" opacity=".4">
                    <path d="M1397.653 745.689l23.307-142.659 1.332.22-23.307 142.659z"/>
                    <path d="M1412.194 658.68l55.037-25.878.572 1.23-55.038 25.878zM1370.875 606.56l.802-1.092 44.502 33.065-.802 1.091z"/>
                </g>
            </g>
        </g>
        <path fill="url(#j)" d="M1271.605 611.46c1.32 2.74.017 6.513-1.036 10-1.062 3.487-1.873 6.695-4.109 8.295-2.227 1.6-5.87 1.6-9.53.33-3.66-1.278-7.338-3.825-8.417-7.33-1.079-3.503.432-7.964 3.186-11.033 2.745-3.07 6.733-4.74 10.687-4.722 3.962.018 7.898 1.73 9.219 4.46z" transform="translate(-9.163)"/>
    </g>
</svg>
