<?xml version="1.0" encoding="UTF-8"?>
<svg xmlns="http://www.w3.org/2000/svg" xmlns:xlink="http://www.w3.org/1999/xlink" width="125pt" height="125pt" viewBox="0 0 125 125" version="1.1">
<g id="surface1">
<path style=" stroke:none;fill-rule:nonzero;fill:rgb(0%,0%,0%);fill-opacity:1;" d="M 65.863281 61.589844 C 63.238281 61.589844 62.445312 60.664062 62.445312 58.265625 C 62.445312 56.070312 63.160156 55.109375 65.070312 55.109375 C 65.675781 55.109375 65.957031 55.164062 66.128906 55.203125 C 66.296875 55.242188 66.355469 55.335938 66.355469 55.503906 L 66.355469 56.695312 C 66.355469 56.921875 66.449219 57.035156 66.695312 57.074219 C 67.054688 57.128906 67.507812 57.148438 68.054688 57.148438 C 68.605469 57.148438 69.058594 57.128906 69.398438 57.074219 C 69.644531 57.035156 69.757812 56.921875 69.757812 56.695312 L 69.757812 54.070312 C 69.757812 53.539062 69.605469 53.386719 69.058594 53.238281 C 67.753906 52.859375 66.449219 52.707031 65.144531 52.707031 C 60.914062 52.707031 58.304688 54.164062 58.304688 58.492188 C 58.304688 63.121094 61.175781 64.273438 65.335938 64.273438 C 67.621094 64.273438 69.265625 63.667969 69.605469 63.480469 C 69.8125 63.367188 69.871094 63.273438 69.871094 63.082031 C 69.890625 62.535156 69.8125 61.570312 69.738281 61.097656 C 69.699219 60.890625 69.605469 60.816406 69.378906 60.890625 C 69.09375 61.003906 67.546875 61.589844 65.863281 61.589844 Z M 74.613281 55.484375 C 74.765625 55.484375 74.839844 55.5625 74.839844 55.714844 L 74.839844 63.554688 C 74.839844 63.820312 74.914062 63.972656 75.238281 64.007812 C 75.632812 64.066406 76.277344 64.085938 76.882812 64.085938 C 77.484375 64.085938 78.128906 64.066406 78.527344 64.007812 C 78.847656 63.972656 78.921875 63.820312 78.921875 63.554688 L 78.921875 55.714844 C 78.921875 55.5625 78.996094 55.484375 79.148438 55.484375 L 82.378906 55.484375 C 82.605469 55.484375 82.71875 55.410156 82.757812 55.222656 C 82.796875 54.996094 82.816406 54.597656 82.816406 54.183594 C 82.816406 53.765625 82.796875 53.386719 82.757812 53.160156 C 82.71875 52.972656 82.605469 52.898438 82.378906 52.898438 L 71.382812 52.898438 C 71.15625 52.898438 71.042969 52.972656 71.003906 53.160156 C 70.964844 53.386719 70.949219 53.765625 70.949219 54.183594 C 70.949219 54.597656 70.964844 54.996094 71.003906 55.222656 C 71.042969 55.410156 71.15625 55.484375 71.382812 55.484375 Z M 74.613281 55.484375 "/>
<path style=" stroke:none;fill-rule:nonzero;fill:rgb(0%,0%,0%);fill-opacity:1;" d="M 60.363281 73.542969 L 58.304688 71.324219 L 58.304688 74.898438 L 58.886719 74.898438 L 58.886719 72.777344 L 60.945312 75 L 60.945312 71.421875 L 60.363281 71.421875 Z M 63.984375 71.394531 C 63.011719 71.394531 62.214844 72.1875 62.214844 73.164062 C 62.214844 74.140625 63.011719 74.9375 63.984375 74.9375 C 64.960938 74.9375 65.753906 74.140625 65.753906 73.164062 C 65.753906 72.1875 64.960938 71.394531 63.984375 71.394531 Z M 63.984375 74.339844 C 63.335938 74.339844 62.808594 73.8125 62.808594 73.164062 C 62.808594 72.515625 63.335938 71.988281 63.984375 71.988281 C 64.632812 71.988281 65.164062 72.515625 65.164062 73.164062 C 65.164062 73.8125 64.632812 74.339844 63.984375 74.339844 Z M 67.027344 71.425781 L 67.027344 72.007812 L 67.859375 72.007812 L 67.859375 74.90625 L 68.441406 74.90625 L 68.441406 72.007812 L 69.277344 72.007812 L 69.277344 71.425781 Z M 70.511719 74.898438 L 72.765625 74.898438 L 72.765625 74.320312 L 71.09375 74.320312 L 71.09375 73.242188 L 72.351562 73.242188 L 72.351562 72.664062 L 71.09375 72.664062 L 71.09375 72.003906 L 72.765625 72.003906 L 72.765625 71.421875 L 70.511719 71.421875 Z M 75.921875 73.445312 C 75.824219 73.21875 75.625 72.996094 75.375 72.878906 L 74.820312 72.625 C 74.707031 72.574219 74.632812 72.457031 74.632812 72.308594 C 74.632812 72.117188 74.792969 71.988281 74.980469 71.988281 C 75.082031 71.988281 75.175781 72.042969 75.234375 72.117188 L 75.277344 72.171875 L 75.8125 71.925781 L 75.769531 71.847656 C 75.609375 71.558594 75.285156 71.394531 74.964844 71.394531 C 74.46875 71.394531 74.039062 71.796875 74.039062 72.292969 C 74.039062 72.648438 74.226562 72.988281 74.585938 73.152344 L 75.113281 73.394531 C 75.285156 73.476562 75.410156 73.65625 75.410156 73.84375 C 75.410156 74.140625 75.171875 74.339844 74.898438 74.339844 C 74.730469 74.339844 74.5625 74.234375 74.484375 74.085938 L 74.449219 74.015625 L 73.90625 74.261719 L 73.945312 74.339844 C 74.136719 74.703125 74.507812 74.933594 74.917969 74.933594 C 75.535156 74.933594 76 74.421875 76 73.824219 C 76 73.699219 75.972656 73.5625 75.921875 73.445312 Z M 75.921875 73.445312 "/>
<path style=" stroke:none;fill-rule:nonzero;fill:rgb(0%,0%,0%);fill-opacity:1;" d="M 44.894531 66.980469 C 43.398438 66.980469 42.183594 65.769531 42.183594 64.273438 L 42.183594 52.707031 C 42.183594 51.210938 43.398438 50 44.894531 50 L 53.324219 50 C 54.820312 50 56.03125 51.210938 56.03125 52.707031 L 56.03125 64.273438 C 56.03125 65.769531 54.820312 66.980469 53.324219 66.980469 Z M 48.453125 60.527344 L 48.453125 59.078125 L 50.136719 59.078125 C 50.332031 59.078125 50.503906 59.152344 50.648438 59.292969 C 50.789062 59.429688 50.863281 59.601562 50.863281 59.804688 C 50.863281 59.992188 50.796875 60.15625 50.667969 60.292969 C 50.546875 60.429688 50.390625 60.507812 50.203125 60.527344 Z M 47.871094 63.691406 L 45.953125 62.472656 C 45.640625 62.222656 45.480469 61.863281 45.480469 61.398438 L 45.480469 54.207031 C 45.515625 54.730469 45.847656 55.191406 46.472656 55.585938 C 46.695312 55.722656 47.007812 55.90625 47.417969 56.136719 C 47.71875 56.300781 47.871094 56.597656 47.871094 57.003906 Z M 49.648438 56.382812 C 49.527344 56.519531 49.371094 56.597656 49.183594 56.617188 L 48.410156 56.617188 C 48.308594 56.167969 48.070312 55.835938 47.699219 55.628906 C 47.382812 55.449219 47.117188 55.296875 46.910156 55.167969 L 49.117188 55.167969 C 49.320312 55.167969 49.492188 55.242188 49.628906 55.382812 C 49.773438 55.519531 49.84375 55.691406 49.84375 55.894531 C 49.84375 56.082031 49.777344 56.246094 49.648438 56.382812 Z M 52.304688 55.894531 C 52.304688 55.03125 52.003906 54.292969 51.398438 53.667969 C 50.796875 53.058594 50.066406 52.738281 49.203125 52.714844 C 49.203125 52.707031 48.15625 52.707031 46.070312 52.707031 C 45.746094 52.707031 45.46875 52.824219 45.238281 53.050781 C 45.007812 53.289062 44.894531 53.570312 44.894531 53.890625 L 44.894531 61.398438 C 44.894531 62.054688 45.128906 62.566406 45.597656 62.933594 L 45.644531 62.96875 L 47.554688 64.179688 C 47.648438 64.246094 47.753906 64.273438 47.871094 64.273438 C 47.972656 64.273438 48.0625 64.253906 48.148438 64.203125 C 48.351562 64.09375 48.453125 63.921875 48.453125 63.691406 L 48.453125 62.988281 L 50.214844 62.988281 C 51.070312 62.988281 51.800781 62.671875 52.410156 62.042969 C 53.023438 61.417969 53.324219 60.671875 53.324219 59.804688 C 53.324219 58.726562 52.886719 57.867188 52.011719 57.226562 C 52.203125 56.804688 52.304688 56.359375 52.304688 55.894531 Z M 52.304688 55.894531 "/>
<path style=" stroke:none;fill-rule:nonzero;fill:rgb(0%,0%,0%);fill-opacity:1;" d="M 47.972656 68.835938 L 50.21875 73.160156 L 56.007812 73.160156 L 55.71875 72.605469 L 50.726562 72.605469 L 48.765625 68.835938 Z M 47.972656 68.835938 "/>
</g>
</svg>
