<svg xmlns:mydata="http://www.w3.org/2000/svg" mydata:contrastcolor="E3E48D" mydata:template="default" mydata:presentation="2.5" mydata:layouttype="beside-text" mydata:specialfontid="353" mydata:id1="289" mydata:id2="248" mydata:companyname="BCT Notes" mydata:companytagline="" version="1.1" xmlns="http://www.w3.org/2000/svg" xmlns:xlink="http://www.w3.org/1999/xlink" viewBox="0 0 550 470"><g fill="#000000" fill-rule="nonzero" stroke="none" stroke-width="1" stroke-linecap="butt" stroke-linejoin="miter" stroke-miterlimit="10" stroke-dasharray="" stroke-dashoffset="0" font-family="none" font-weight="none" font-size="none" text-anchor="none" style="mix-blend-mode: normal"><g><path d="M289.80195,230.99615c-11.55774,0 -15.05001,-4.07431 -15.05001,-14.63426c0,-9.64531 3.15967,-13.88592 11.55774,-13.88592c2.66077,0 3.90801,0.24945 4.65636,0.41575c0.74834,0.1663 0.99779,0.58204 0.99779,1.33039v5.2384c0,0.99779 0.41575,1.49669 1.49669,1.66298c1.57983,0.24945 3.57542,0.3326 5.98674,0.3326c2.41133,0 4.40691,-0.08315 5.90359,-0.3326c1.08094,-0.1663 1.57983,-0.66519 1.57983,-1.66298v-11.55774c0,-2.32818 -0.66519,-2.99337 -3.07652,-3.65857c-5.7373,-1.66298 -11.47459,-2.32818 -17.21189,-2.32818c-18.62542,0 -30.10001,6.40249 -30.10001,25.44366c0,20.37156 12.63868,25.44366 30.93151,25.44366c10.06105,0 17.29504,-2.66077 18.79172,-3.49227c0.91464,-0.4989 1.16409,-0.91464 1.16409,-1.74613c0.08315,-2.41133 -0.24945,-6.65194 -0.58204,-8.73067c-0.1663,-0.91464 -0.58204,-1.24724 -1.57983,-0.91464c-1.24724,0.4989 -8.06547,3.07652 -15.46575,3.07652zM328.30003,204.13895c0.66519,0 0.99779,0.3326 0.99779,0.99779v34.50692c0,1.16409 0.3326,1.82928 1.74613,1.99558c1.74613,0.24945 4.57321,0.3326 7.23398,0.3326c2.66077,0 5.48785,-0.08315 7.23398,-0.3326c1.41354,-0.1663 1.74613,-0.83149 1.74613,-1.99558v-34.50692c0,-0.66519 0.3326,-0.99779 0.99779,-0.99779h14.21851c0.99779,0 1.49669,-0.3326 1.66298,-1.16409c0.1663,-0.99779 0.24945,-2.74392 0.24945,-4.57321c0,-1.82928 -0.08315,-3.49227 -0.24945,-4.49006c-0.1663,-0.83149 -0.66519,-1.16409 -1.66298,-1.16409h-48.39284c-0.99779,0 -1.49669,0.3326 -1.66298,1.16409c-0.1663,0.99779 -0.24945,2.66077 -0.24945,4.49006c0,1.82928 0.08315,3.57542 0.24945,4.57321c0.1663,0.83149 0.66519,1.16409 1.66298,1.16409z"></path><path d="M265.59439,283.59141l-9.05213,-9.7731v15.74109h2.56343v-9.3325l9.05213,9.7731v-15.74109h-2.56343zM281.52907,274.13875c-4.28574,0 -7.79044,3.48467 -7.79044,7.79044c0,4.28574 3.5047,7.79044 7.79044,7.79044c4.30577,0 7.79044,-3.5047 7.79044,-7.79044c0,-4.30577 -3.48467,-7.79044 -7.79044,-7.79044zM281.52907,287.09611c-2.84381,0 -5.16692,-2.32311 -5.16692,-5.16692c0,-2.86384 2.32311,-5.18695 5.16692,-5.18695c2.86384,0 5.18695,2.32311 5.18695,5.18695c0,2.84381 -2.32311,5.16692 -5.18695,5.16692zM294.92033,274.27894v2.56343h3.66491v12.73707h2.56343v-12.73707h3.66491v-2.56343zM310.2542,289.55941h9.91328v-2.54341h-7.34985v-4.74636h5.52741v-2.54341h-5.52741v-2.90389h7.34985v-2.56343h-9.91328zM334.05942,283.15082c-0.44059,-0.98131 -1.30174,-1.96263 -2.40322,-2.48333l-2.44327,-1.1215c-0.50067,-0.2203 -0.8211,-0.74099 -0.8211,-1.38185c0,-0.84113 0.70094,-1.42191 1.52204,-1.42191c0.44059,0 0.86115,0.24032 1.1215,0.58078l0.18024,0.24032l2.36317,-1.08145l-0.20027,-0.36048c-0.70094,-1.26169 -2.12284,-1.98266 -3.52472,-1.98266c-2.18292,0 -4.08547,1.76236 -4.08547,3.94529c0,1.56209 0.8211,3.06411 2.40322,3.78507l2.32311,1.06142c0.76102,0.36048 1.30174,1.16156 1.30174,1.98266c0,1.30174 -1.0414,2.18292 -2.24301,2.18292c-0.74099,0 -1.48199,-0.46062 -1.82244,-1.1215l-0.16021,-0.3004l-2.38319,1.08145l0.18024,0.34046c0.84113,1.60215 2.4633,2.60349 4.26572,2.60349c2.72365,0 4.76639,-2.24301 4.76639,-4.86652c0,-0.56075 -0.12016,-1.16156 -0.34046,-1.68225z"></path><path d="M197.52923,254.71935c-6.58103,0 -11.91602,-5.33498 -11.91602,-11.91602v-50.88732c0,-6.58103 5.33498,-11.91602 11.91602,-11.91602h37.09218c6.58103,0 11.91602,5.33498 11.91602,11.91602v50.88732c0,6.58103 -5.33498,11.91602 -11.91602,11.91602zM213.18687,226.32493v-6.3767h7.41844c0.85233,0 1.60996,0.31568 2.24132,0.94703c0.63136,0.59979 0.94703,1.35742 0.94703,2.24132c0,0.82076 -0.28411,1.54682 -0.85233,2.14661c-0.53665,0.59979 -1.23114,0.94703 -2.05191,1.04174zM210.62987,240.24634l-8.42861,-5.36653c-1.38898,-1.10487 -2.08348,-2.68326 -2.08348,-4.73517v-31.63095c0.15784,2.30445 1.60996,4.32479 4.35636,6.06102c0.9786,0.59979 2.36759,1.42055 4.16695,2.43072c1.32585,0.72606 1.98877,2.02034 1.98877,3.81971zM218.45869,208.07874c-0.53665,0.59979 -1.23114,0.94703 -2.05191,1.04174h-3.40932c-0.44195,-1.98877 -1.48369,-3.44089 -3.12521,-4.35636c-1.38898,-0.7892 -2.55699,-1.45212 -3.47246,-2.02034h9.72289c0.8839,0 1.64153,0.31568 2.24131,0.94703c0.63136,0.59979 0.94703,1.35742 0.94703,2.24131c0,0.82076 -0.28411,1.54682 -0.85233,2.14661zM230.13878,205.93213c0,-3.78814 -1.32585,-7.03962 -3.97754,-9.78602c-2.6517,-2.68326 -5.87161,-4.10382 -9.65975,-4.19852c0,-0.03157 -4.6089,-0.03157 -13.79513,-0.03157c-1.42055,0 -2.6517,0.50509 -3.66187,1.51526c-1.01017,1.04174 -1.51526,2.27288 -1.51526,3.69343v33.01993c0,2.90424 1.04174,5.14555 3.09365,6.75551l0.22097,0.15784l8.39704,5.33496c0.41038,0.28411 0.8839,0.41038 1.38898,0.41038c0.44195,0 0.85233,-0.0947 1.23115,-0.31568c0.8839,-0.47352 1.32585,-1.23115 1.32585,-2.24132v-3.09365h7.76568c3.75657,0 6.97649,-1.38898 9.65975,-4.16695c2.68326,-2.7464 4.00911,-6.02945 4.00911,-9.84916c0,-4.73517 -1.92564,-8.52331 -5.77691,-11.33285c0.85233,-1.8625 1.29428,-3.81971 1.29428,-5.87161z"></path><path d="M211.0729,262.87629l9.89628,19.03287h25.45969l-1.27451,-2.45118h-21.958l-8.62177,-16.58168z"></path></g></g></svg>